<svg id="Layer_1" data-name="Layer 1" xmlns="http://www.w3.org/2000/svg" viewBox="0 0 48 48"><path d="M5.72,11.49c2.74,3.16,6.35,4.12,10,4.82a43.64,43.64,0,0,0,20.35-.77,13.68,13.68,0,0,0,6.83-3.83c-.2.93-.4,1.86-.59,2.79s-.41,2-.62,2.94q-2.51,11.61-5,23.22a17.37,17.37,0,0,1-.54,2c-.91,2.48-2.2,4.22-5.74,4.12-4.62-.12-9.25-.08-13.87,0a4.66,4.66,0,0,1-5-3.33A50.64,50.64,0,0,1,10,36.5C8.54,28.4,7.16,20.28,5.76,12.17,5.74,12,5.74,11.87,5.72,11.49Z"/><path d="M24.35,15.77c-4.63-.13-9.08-.46-13.29-2.12a13.51,13.51,0,0,1-3.9-2.36,3,3,0,0,1,0-4.85,15.42,15.42,0,0,1,4.66-2.62A41.52,41.52,0,0,1,29.29,2.28a27.58,27.58,0,0,1,9.25,2.25,10.82,10.82,0,0,1,2.85,1.92,3.14,3.14,0,0,1,0,4.88,12.47,12.47,0,0,1-3.49,2.17C33.51,15.31,28.87,15.64,24.35,15.77Zm-.1-1.59c2.82-.31,5.66-.53,8.47-1a15.57,15.57,0,0,0,6.67-2.41c1.82-1.26,1.85-2.61,0-3.79A14.1,14.1,0,0,0,36,5.41a40.81,40.81,0,0,0-21.43-.53A20.53,20.53,0,0,0,9.12,7.06c-1.85,1-1.81,2.51,0,3.68a14.64,14.64,0,0,0,3.31,1.59A42.25,42.25,0,0,0,24.25,14.18Z"/></svg>