<svg id="Layer_1" data-name="Layer 1" xmlns="http://www.w3.org/2000/svg" viewBox="0 0 48 48"><defs><style>.cls-1{fill:#8e06c1;}.cls-2{fill:none;stroke:#8e06c1;stroke-miterlimit:10;stroke-width:2px;}</style></defs><path class="cls-1" d="M4.59,30.69c6,13.79,24.52,17,34.43,5.65a20.27,20.27,0,0,0,1.11-25.13C31.32-1,12.44.59,5.34,13.77,9.23,4.7,20-.37,29.5,2.08c9.82,2.2,17,11.94,16.47,22C44.43,47.42,13,52.71,4.59,30.69Z"/><circle class="cls-2" cx="24.08" cy="23.08" r="17.58"/><path class="cls-1" d="M17.65,12.62c-8.82,7.29-4,21.62,7.25,21.17,7.58-.13,12.85-8.54,10-15.63A12.79,12.79,0,0,0,30.13,12l.09-.18a12.68,12.68,0,1,1-12.67.59l.1.17Z"/><path class="cls-1" d="M31.58,18.7c-4.75-6.31-15-3.14-14.58,4.87s11.23,9.78,15.1,2.91C28.87,35.59,15.64,33.16,15,23.7s12.16-13.61,16.57-5Z"/><path class="cls-1" d="M26.47,27.34c3.14-2.47,1.86-7.54-1.91-7.71A3.88,3.88,0,0,0,20.82,22a4.7,4.7,0,0,0,1.1,5.14l-.08.12a4.92,4.92,0,1,1,4.69.23l-.06-.13Z"/></svg>