<svg id="Layer_1" data-name="Layer 1" xmlns="http://www.w3.org/2000/svg" viewBox="0 0 48 48"><path d="M30.29,28.1a16.59,16.59,0,0,1,1-1.65,6.56,6.56,0,0,1,6.7-2.6,6.63,6.63,0,0,1,5.42,4.93A6.88,6.88,0,0,1,30.38,33a.36.36,0,0,0-.34-.27,22.57,22.57,0,0,1-10.45-4.72,22.69,22.69,0,0,1-3.43-3.29.46.46,0,0,1-.08-.13l-.08,0v.26c0,2.72,0,5.43,0,8.15a.39.39,0,0,0,.28.42,6.71,6.71,0,0,1,4.29,5.67A6.59,6.59,0,0,1,18,45.26a6.58,6.58,0,0,1-4.54,1.55,6.9,6.9,0,0,1-2.35-13.32.34.34,0,0,0,.25-.37q0-9.4,0-18.82a.33.33,0,0,0-.23-.36A6.78,6.78,0,0,1,6.76,7.66,6.93,6.93,0,0,1,20.53,6.42a6.86,6.86,0,0,1-3.29,7,7.76,7.76,0,0,1-.91.46c-.15.07-.19.13-.16.29a15.19,15.19,0,0,0,4.56,8.75,19.49,19.49,0,0,0,9.56,5.18ZM13.69,5.23a2.27,2.27,0,0,0-2.31,2.3,2.27,2.27,0,0,0,2.31,2.32,2.31,2.31,0,1,0,0-4.62ZM36.79,33a2.31,2.31,0,1,0-2.31-2.3A2.28,2.28,0,0,0,36.79,33ZM13.67,42.19a2.31,2.31,0,1,0-2.29-2.31A2.28,2.28,0,0,0,13.67,42.19Z"/></svg>